<?xml version="1.0" encoding="UTF-8"?>
<svg id="Layer_1" data-name="Layer 1" xmlns="http://www.w3.org/2000/svg" viewBox="0 0 12 12">
    <defs>
        <style>
            .cls-1 {
            fill: #c51d63;
            stroke-width: 0px;
            }
        </style>
    </defs>
    <path class="cls-1" d="M.65,3.51c.87-.87,2.28-.87,3.15,0l3.46,3.46,2.2-2.2.02-.02c.17-.15.43-.15.6,0l.02.02.02.02c.15.17.15.43,0,.6l-.02.02-2.83,2.83L3.17,4.14c-.52-.52-1.37-.52-1.89,0-.51.51-.52,1.34-.02,1.86l.02.02,4.72,4.72,4.72-4.72c.51-.51.52-1.34.02-1.86l-.02-.02c-.51-.51-1.34-.52-1.86-.02l-.02.02-1.57,1.57-.63-.63,1.57-1.57c.87-.87,2.28-.87,3.15,0,.87.87.87,2.28,0,3.15l-5.35,5.35L.65,6.65c-.87-.87-.87-2.28,0-3.15ZM1.91,4.77c.17-.17.44-.17.61-.02l.02.02,2.83,2.83-.63.63-2.83-2.83-.02-.02c-.16-.17-.15-.44.02-.61ZM4.69.54c.72-.72,1.89-.72,2.61,0,.72.72.72,1.89,0,2.61-.72.72-1.89.72-2.61,0-.72-.72-.72-1.89,0-2.61ZM5.32,1.17c-.37.37-.37.98,0,1.35.37.37.98.37,1.35,0,.37-.37.37-.98,0-1.35-.37-.37-.98-.37-1.35,0Z"/>
</svg>